<?xml version="1.0" encoding="UTF-8" standalone="no"?>
<!-- Created with Inkscape (http://www.inkscape.org/) -->

<svg
   width="297mm"
   height="210mm"
   viewBox="0 0 297 210"
   version="1.1"
   id="svg862"
   inkscape:version="1.1 (c68e22c387, 2021-05-23)"
   sodipodi:docname="BackCloud.svg"
   xmlns:inkscape="http://www.inkscape.org/namespaces/inkscape"
   xmlns:sodipodi="http://sodipodi.sourceforge.net/DTD/sodipodi-0.dtd"
   xmlns="http://www.w3.org/2000/svg"
   xmlns:svg="http://www.w3.org/2000/svg">
  <sodipodi:namedview
     id="namedview864"
     pagecolor="#ffffff"
     bordercolor="#666666"
     borderopacity="1.0"
     inkscape:pageshadow="2"
     inkscape:pageopacity="0.0"
     inkscape:pagecheckerboard="0"
     inkscape:document-units="mm"
     showgrid="false"
     inkscape:zoom="0.67081229"
     inkscape:cx="690.95335"
     inkscape:cy="322.74304"
     inkscape:window-width="1920"
     inkscape:window-height="1001"
     inkscape:window-x="-9"
     inkscape:window-y="-9"
     inkscape:window-maximized="1"
     inkscape:current-layer="layer1" />
  <defs
     id="defs859">
    <inkscape:path-effect
       effect="bspline"
       id="path-effect1980"
       is_visible="true"
       lpeversion="1"
       weight="33.333333"
       steps="2"
       helper_size="0"
       apply_no_weight="true"
       apply_with_weight="true"
       only_selected="false" />
  </defs>
  <g
     inkscape:label="Layer 1"
     inkscape:groupmode="layer"
     id="layer1">
    <path
       style="fill:#f9f9f9;stroke:none;stroke-width:0.264583px;stroke-linecap:butt;stroke-linejoin:miter;stroke-opacity:1"
       d="M -0.21667668,53.729565 C 6.491726,53.973507 13.197397,54.217349 18.074082,54.217203 c 4.876685,-1.46e-4 7.924715,-0.243989 9.935563,-0.670839 2.010847,-0.42685 2.986216,-1.036457 3.901381,-1.402157 0.915164,-0.3657 1.768615,-0.487621 3.109213,-0.975416 1.340598,-0.487795 3.169418,-1.341244 6.157191,-1.828697 2.987774,-0.487452 7.133094,-0.609374 12.132113,-0.06037 4.999019,0.549003 10.851229,1.768214 13.898744,2.561909 3.047516,0.793696 3.29136,1.159461 4.633032,2.073276 1.341671,0.913816 3.780092,2.376868 5.303874,3.413587 1.523782,1.036719 2.13339,1.646327 4.754922,2.49882 2.621532,0.852492 7.254532,1.949782 12.131019,2.254105 4.876486,0.304323 9.997186,-0.183363 13.472076,-0.427092 3.47489,-0.243729 5.30371,-0.243729 8.04635,-0.914567 2.74264,-0.670837 6.40027,-2.011969 10.66795,-2.926226 4.26768,-0.914256 9.14453,-1.401941 12.25324,-1.828791 3.1087,-0.42685 4.44984,-0.792616 11.82668,0.122284 7.37683,0.9149 20.78816,3.109481 30.6636,4.206526 9.87544,1.097045 16.21534,1.097045 21.15266,0.548141 4.93732,-0.548903 8.47303,-1.646193 14.26455,-2.804352 5.79152,-1.15816 13.83832,-2.377372 20.30064,-2.071803 6.46232,0.305568 11.33916,2.134384 15.7282,3.29222 4.38903,1.157837 8.29051,1.645522 13.77687,2.011149 5.48636,0.365627 12.55777,0.609469 17.18966,-0.06132 4.63188,-0.670791 6.82646,-2.255767 8.8996,-3.414112 2.07314,-1.158345 4.02389,-1.889873 4.99854,-2.255364 0.97465,-0.365492 1.06605,-55.68722641 1.06605,-55.68722641 0,0 -299.01167663,0 -299.01167663,0"
       id="path1978"
       inkscape:path-effect="#path-effect1980"
       inkscape:original-d="m -0.21667668,53.729565 c 6.70831008,0.246488 13.41398068,0.490331 20.11700068,0.731527 3.05067,-0.241196 6.0987,-0.485039 9.14409,-0.731527 0.97801,-0.60696 1.95338,-1.216565 2.9261,-1.828819 0.8561,-0.119274 1.70955,-0.241197 2.56035,-0.365763 1.83146,-0.850802 3.66028,-1.70425 5.48645,-2.560343 4.14797,-0.119277 8.29329,-0.241197 12.43596,-0.365766 5.85487,1.221859 11.70708,2.44107 17.55665,3.657637 0.24649,0.368409 0.49034,0.734171 0.73153,1.097291 2.44107,1.465699 4.87949,2.928752 7.31527,4.389162 0.61225,0.612251 1.22186,1.221857 1.82882,1.828819 4.63565,1.099936 9.26865,2.197227 13.89901,3.291871 5.12334,-0.485039 10.244036,-0.972724 15.362076,-1.463055 1.83147,0.0026 3.66029,0.0026 5.48646,0 3.66028,-1.338488 7.31791,-2.679621 10.9729,-4.0234 4.87949,-0.485037 9.75634,-0.972722 14.63054,-1.463053 1.34378,-0.363117 2.68492,-0.728882 4.0234,-1.097291 13.41398,2.197227 26.82531,4.391808 40.23399,6.583744 6.34255,0.0026 12.68245,0.0026 19.01971,0 3.53836,-1.094645 7.07407,-2.191936 10.60714,-3.291872 8.04944,-1.216565 16.09624,-2.435778 24.14039,-3.657635 4.8795,1.831462 9.75634,3.660281 14.63054,5.486453 3.90413,0.490331 7.80561,0.978014 11.70443,1.463054 7.07409,0.246488 14.1455,0.490331 21.21429,0.731527 2.19724,-1.58233 4.39182,-3.167305 6.58374,-4.754927 1.95339,-0.72888 3.90414,-1.460407 5.85224,-2.194581 l 0.0914,-55.32173441 H -0.67387663"
       sodipodi:nodetypes="cccccccccccccccccccccccccccc" />
  </g>
</svg>
