<?xml version="1.0" encoding="UTF-8" standalone="no"?>
<!-- Created with Inkscape (http://www.inkscape.org/) -->

<svg
   width="297mm"
   height="210mm"
   viewBox="0 0 297 210"
   version="1.1"
   id="svg5"
   inkscape:version="1.1 (c68e22c387, 2021-05-23)"
   sodipodi:docname="drawing.svg"
   xmlns:inkscape="http://www.inkscape.org/namespaces/inkscape"
   xmlns:sodipodi="http://sodipodi.sourceforge.net/DTD/sodipodi-0.dtd"
   xmlns:xlink="http://www.w3.org/1999/xlink"
   xmlns="http://www.w3.org/2000/svg"
   xmlns:svg="http://www.w3.org/2000/svg">
  <sodipodi:namedview
     id="namedview7"
     pagecolor="#ffffff"
     bordercolor="#666666"
     borderopacity="1.0"
     inkscape:pageshadow="2"
     inkscape:pageopacity="0.0"
     inkscape:pagecheckerboard="0"
     inkscape:document-units="mm"
     showgrid="false"
     inkscape:zoom="0.51150168"
     inkscape:cx="1217.0048"
     inkscape:cy="348.97246"
     inkscape:window-width="1920"
     inkscape:window-height="1001"
     inkscape:window-x="-9"
     inkscape:window-y="-9"
     inkscape:window-maximized="1"
     inkscape:current-layer="layer2">
    <inkscape:grid
       type="xygrid"
       id="grid3908" />
  </sodipodi:namedview>
  <defs
     id="defs2">
    <inkscape:path-effect
       effect="bspline"
       id="path-effect7359"
       is_visible="true"
       lpeversion="1"
       weight="33.333333"
       steps="2"
       helper_size="0"
       apply_no_weight="true"
       apply_with_weight="true"
       only_selected="false" />
    <linearGradient
       inkscape:collect="always"
       id="linearGradient7169">
      <stop
         style="stop-color:#cccccc;stop-opacity:1;"
         offset="0"
         id="stop7165" />
      <stop
         style="stop-color:#cccccc;stop-opacity:0;"
         offset="1"
         id="stop7167" />
    </linearGradient>
    <inkscape:path-effect
       effect="bspline"
       id="path-effect4033"
       is_visible="true"
       lpeversion="1"
       weight="33.333333"
       steps="2"
       helper_size="0"
       apply_no_weight="true"
       apply_with_weight="true"
       only_selected="false" />
    <inkscape:path-effect
       effect="bspline"
       id="path-effect3912"
       is_visible="true"
       lpeversion="1"
       weight="33.333333"
       steps="2"
       helper_size="0"
       apply_no_weight="true"
       apply_with_weight="true"
       only_selected="false" />
    <inkscape:path-effect
       effect="bspline"
       id="path-effect2353"
       is_visible="true"
       lpeversion="1"
       weight="33.333333"
       steps="2"
       helper_size="0"
       apply_no_weight="true"
       apply_with_weight="true"
       only_selected="false" />
    <inkscape:path-effect
       effect="bspline"
       id="path-effect1997"
       is_visible="true"
       lpeversion="1"
       weight="33.333333"
       steps="2"
       helper_size="0"
       apply_no_weight="true"
       apply_with_weight="true"
       only_selected="false" />
    <inkscape:path-effect
       effect="bspline"
       id="path-effect1992"
       is_visible="true"
       lpeversion="1"
       weight="33.333333"
       steps="2"
       helper_size="0"
       apply_no_weight="true"
       apply_with_weight="true"
       only_selected="false" />
    <inkscape:path-effect
       effect="bspline"
       id="path-effect1980"
       is_visible="true"
       lpeversion="1"
       weight="33.333333"
       steps="2"
       helper_size="0"
       apply_no_weight="true"
       apply_with_weight="true"
       only_selected="false" />
    <inkscape:path-effect
       effect="bspline"
       id="path-effect1976"
       is_visible="true"
       lpeversion="1"
       weight="33.333333"
       steps="2"
       helper_size="0"
       apply_no_weight="true"
       apply_with_weight="true"
       only_selected="false" />
    <linearGradient
       inkscape:collect="always"
       id="linearGradient1450">
      <stop
         style="stop-color:#f9f9f9;stop-opacity:1;"
         offset="0"
         id="stop1446" />
      <stop
         style="stop-color:#e6e6e6;stop-opacity:1"
         offset="1"
         id="stop1448" />
    </linearGradient>
    <linearGradient
       inkscape:collect="always"
       xlink:href="#linearGradient1450"
       id="linearGradient1452"
       x1="146.90405"
       y1="207.42438"
       x2="147.42131"
       y2="-62.589401"
       gradientUnits="userSpaceOnUse" />
    <linearGradient
       inkscape:collect="always"
       xlink:href="#linearGradient7169"
       id="linearGradient7171"
       x1="146.90405"
       y1="99.315414"
       x2="148.45586"
       y2="205.3553"
       gradientUnits="userSpaceOnUse" />
  </defs>
  <g
     inkscape:label="Layer 1"
     inkscape:groupmode="layer"
     id="layer1">
    <rect
       style="fill:url(#linearGradient1452);stroke-width:0.264583;fill-opacity:1"
       id="rect1392"
       width="299.01169"
       height="211.68565"
       x="-0.091440886"
       y="-0.091440886" />
  </g>
  <g
     inkscape:groupmode="layer"
     id="layer2"
     inkscape:label="BackCloud">
    <path
       style="fill:none;stroke:#000000;stroke-width:0.264583px;stroke-linecap:butt;stroke-linejoin:miter;stroke-opacity:1"
       d="m -0.09144089,-0.09144089 c 0,0 0.45720443,53.85868189 0.45720443,53.85868189"
       id="path1974"
       inkscape:path-effect="#path-effect1976"
       inkscape:original-d="M -0.09144089,-0.09144089 0.36576354,53.767241" />
    <path
       style="fill:#f9f9f9;stroke:none;stroke-width:0.264583px;stroke-linecap:butt;stroke-linejoin:miter;stroke-opacity:1"
       d="m 0.36576354,53.767241 c 6.70840336,0.243942 13.41406846,0.487784 18.29075546,0.487638 4.876688,-1.47e-4 7.924716,-0.243989 9.935563,-0.670839 2.010848,-0.426851 2.986217,-1.036457 3.90138,-1.402157 0.915163,-0.365699 1.768614,-0.487621 3.109214,-0.975416 1.3406,-0.487796 3.169418,-1.341244 6.157191,-1.828696 2.987772,-0.487452 7.133092,-0.609374 12.13211,-0.06037 4.999018,0.549002 10.851233,1.768214 13.898749,2.561909 3.047515,0.793696 3.291357,1.159459 4.633028,2.073275 1.341672,0.913816 3.780095,2.37687 5.303877,3.413589 1.523781,1.036719 2.133388,1.646326 4.75492,2.498819 2.621532,0.852492 7.254537,1.949783 12.131021,2.254105 4.876484,0.304323 9.997178,-0.183362 13.472068,-0.427092 3.47489,-0.243729 5.30371,-0.243729 8.04635,-0.914567 2.74264,-0.670837 6.40027,-2.011969 10.66795,-2.926226 4.26768,-0.914256 9.14453,-1.401941 12.25324,-1.828791 3.1087,-0.42685 4.44984,-0.792616 11.82668,0.122284 7.37683,0.9149 20.78816,3.109481 30.6636,4.206526 9.87544,1.097045 16.21534,1.097045 21.15266,0.548141 4.93732,-0.548903 8.47303,-1.646193 14.26455,-2.804352 5.79152,-1.15816 13.83832,-2.377372 20.30064,-2.071803 6.46232,0.305568 11.33916,2.134384 15.7282,3.29222 4.38903,1.157837 8.29051,1.645522 13.77687,2.011149 5.48636,0.365627 12.55777,0.609469 17.18966,-0.06132 4.63188,-0.670791 6.82646,-2.255767 8.8996,-3.414112 2.07314,-1.158345 4.02389,-1.889873 4.99854,-2.255364 0.97465,-0.365492 1.06605,-55.68722689 1.06605,-55.68722689 0,0 -299.01167089,0 -299.01167089,0"
       id="path1978"
       inkscape:path-effect="#path-effect1980"
       inkscape:original-d="m 0.36576354,53.767241 c 6.70831076,0.246488 13.41397546,0.490331 20.11699446,0.731527 3.050676,-0.241196 6.098704,-0.485039 9.14409,-0.731527 0.978014,-0.60696 1.953384,-1.216565 2.926106,-1.828819 0.856094,-0.119274 1.709545,-0.241197 2.560347,-0.365763 1.831462,-0.850802 3.66028,-1.70425 5.486453,-2.560343 4.147965,-0.119277 8.293285,-0.241197 12.435959,-0.365766 5.854864,1.221859 11.707079,2.44107 17.556651,3.657637 0.246489,0.368409 0.490332,0.734171 0.731526,1.097291 2.441069,1.465699 4.879493,2.928752 7.315271,4.389162 0.612251,0.612251 1.221859,1.221857 1.828819,1.828819 4.63565,1.099936 9.268655,2.197227 13.899014,3.291871 5.123336,-0.485039 10.244026,-0.972724 15.362066,-1.463055 1.83147,0.0026 3.66029,0.0026 5.48646,0 3.66028,-1.338488 7.31791,-2.679621 10.9729,-4.0234 4.87949,-0.485037 9.75634,-0.972722 14.63054,-1.463053 1.34378,-0.363117 2.68492,-0.728882 4.0234,-1.097291 13.41398,2.197227 26.82531,4.391808 40.23399,6.583744 6.34255,0.0026 12.68245,0.0026 19.01971,0 3.53836,-1.094645 7.07407,-2.191936 10.60714,-3.291872 8.04944,-1.216565 16.09624,-2.435778 24.14039,-3.657635 4.8795,1.831462 9.75634,3.660281 14.63054,5.486453 3.90413,0.490331 7.80561,0.978014 11.70443,1.463054 7.07409,0.246488 14.1455,0.490331 21.21429,0.731527 2.19724,-1.58233 4.39182,-3.167305 6.58374,-4.754927 1.95339,-0.72888 3.90414,-1.460407 5.85224,-2.194581 l 0.0914,-55.32173489 -299.01167089,0"
       sodipodi:nodetypes="cccccccccccccccccccccccccccc" />
    <path
       style="fill:none;stroke:#000000;stroke-width:0.264583px;stroke-linecap:butt;stroke-linejoin:miter;stroke-opacity:1"
       d="m 298.92027,-0.09144089 c 0,0 -299.01171089,0 -299.01171089,0"
       id="path1990"
       inkscape:path-effect="#path-effect1992"
       inkscape:original-d="M 298.92027,-0.09144089 H -0.09144089" />
  </g>
  <g
     inkscape:groupmode="layer"
     id="layer3"
     inkscape:label="MidCloud">
    <path
       style="fill:#ececec;stroke:none;stroke-width:0.264583px;stroke-linecap:butt;stroke-linejoin:miter;stroke-opacity:1"
       d="m 85.65238,22.549361 c 0.731953,0.547987 1.707322,1.035672 3.505651,1.980612 1.798329,0.944939 4.419634,2.347033 7.497953,3.138748 3.078318,0.791715 6.614036,0.974597 9.204746,1.035438 2.59071,0.06084 4.23664,-1.18e-4 5.3325,-0.396103 1.09586,-0.395984 1.64451,-1.127513 3.56554,-2.225288 1.92103,-1.097775 5.2129,-2.560828 8.04809,-3.44463 2.83518,-0.883801 5.21265,-1.188605 6.70638,-1.34086 1.49372,-0.152256 2.10332,-0.152256 3.81016,-0.213272 1.70684,-0.06101 4.51102,-0.182937 7.13239,-0.243842 2.62136,-0.06091 5.05979,-0.06091 6.523,0.123089 1.46321,0.183995 1.9509,0.549755 3.10899,0.731526 1.15809,0.18177 2.98691,0.18177 6.70575,0.944203 3.71884,0.762432 9.32722,2.286448 13.77647,2.407671 4.44926,0.121223 7.74113,-1.158949 9.72179,-2.073203 1.98066,-0.914254 2.65123,-1.462901 4.63332,-2.072595 1.98209,-0.609694 5.27396,-1.28026 8.29129,-2.072806 3.01733,-0.792546 5.76056,-1.706956 10.85149,-1.493057 5.09092,0.213899 12.52812,1.555034 17.19169,2.59171 4.66357,1.036675 6.55335,1.768202 8.26022,2.560951 1.70687,0.792749 3.23088,1.646196 5.02921,2.682566 1.79832,1.03637 3.87098,2.255582 8.26003,3.199696 4.38904,0.944114 11.09471,1.614681 16.15372,1.309462 5.05901,-0.305219 8.4728,-1.585391 10.45314,-2.590758 1.98034,-1.005367 2.52898,-1.736892 3.90113,-2.773664 1.37214,-1.036771 3.56672,-2.377903 6.76817,-2.926239 3.20145,-0.548336 7.40773,-0.304494 10.76077,0.275134 3.35303,0.579628 5.85241,1.494036 7.10051,1.950658 1.2481,0.456622 1.61386,43.61672 0.51695,44.287057 -1.09692,0.670336 -3.2915,2.011469 -4.69397,2.987069 -1.40247,0.975599 -2.01207,1.585206 -2.80363,2.011696 -0.79155,0.426489 -1.76692,0.670332 -5.54606,0.731551 -3.77914,0.06122 -10.36289,-0.0607 -14.26439,-0.729969 -3.9015,-0.669267 -5.12071,-1.888479 -7.9856,-3.230422 -2.86489,-1.341943 -7.37597,-2.804996 -12.55841,-2.561933 -5.18244,0.243063 -11.03466,2.193803 -17.679,3.596028 -6.64434,1.402225 -14.08153,2.255673 -21.15252,1.402967 -7.071,-0.852706 -13.77666,-3.413049 -17.49542,-4.997441 -3.71876,-1.584393 -4.45029,-2.193996 -5.79125,-2.926019 -1.34097,-0.732023 -3.29171,-1.585473 -4.57246,-1.952138 -1.28075,-0.366665 -1.89036,-0.244743 -4.02368,-0.183579 -2.13331,0.06116 -5.79095,0.06116 -9.93634,0.183019 -4.1454,0.121856 -8.7784,0.365698 -13.47302,1.584704 -4.69463,1.219007 -9.44956,3.413589 -16.03259,4.572092 -6.58303,1.158503 -14.99559,1.280424 -22.31081,1.28047 -7.31523,4.5e-5 -13.53321,-0.121876 -19.994785,-1.706153 C 91.687919,66.37923 84.982253,63.3312 80.288016,61.806461 c -4.694237,-1.52474 -7.376503,-1.52474 -10.851257,-1.52474 -3.474754,0 -7.741995,0 -11.461327,0.731256 -3.719331,0.731256 -6.889282,2.194311 -10.668141,2.987034 -3.778858,0.792723 -8.168021,0.914644 -12.008662,1.158393 -3.840641,0.243749 -7.132513,0.609512 -12.862709,0.975348 C 16.705724,66.499588 8.5370051,66.86535 4.4513843,67.048288 0.36576354,67.231226 0.36576354,24.071129 1.2198505,23.705092 2.0739374,23.339055 3.7808341,22.607528 5.3358893,22.180974 6.8909444,21.754419 8.293038,21.632498 10.396178,21.449616 c 2.103141,-0.182882 4.907328,-0.426724 7.68141,-0.151843 2.774082,0.274882 5.517309,1.06737 7.650852,1.585319 2.133543,0.51795 3.657558,0.761793 5.120695,1.097317 1.463137,0.335524 2.865231,0.762249 3.992833,1.005711 1.127602,0.243463 1.98105,0.304423 3.992776,0.487342 2.011726,0.182919 5.181677,0.487722 7.04099,0.670627 1.859314,0.182905 2.407958,0.243866 3.443457,-0.06137 1.035499,-0.305238 2.559513,-0.975804 3.931685,-1.371893 1.372172,-0.396089 2.591383,-0.51801 3.566103,-0.761999 0.97472,-0.243989 1.706246,-0.609752 2.682104,-0.914494 0.975858,-0.304742 2.19507,-0.548585 3.383353,-0.944894 1.188282,-0.39631 2.346534,-0.944955 4.572374,-1.188503 2.22584,-0.243548 5.517711,-0.182588 8.443796,-0.152132 2.926084,0.03045 5.486429,0.03045 7.010283,0.33671 1.523853,0.306255 2.011538,0.915861 2.743491,1.463848 z"
       id="path1995"
       inkscape:path-effect="#path-effect1997"
       inkscape:original-d="m 85.405788,22.608076 c 0.978016,0.49033 1.953385,0.978015 2.926109,1.463054 2.623951,1.404739 5.245256,2.806833 7.863916,4.206281 3.53836,0.185527 7.074077,0.368409 10.607147,0.548645 1.64858,-0.05832 3.29451,-0.119272 4.9378,-0.182882 0.55129,-0.728881 1.09994,-1.460408 1.64594,-2.194581 3.29452,-1.460408 6.58639,-2.923463 9.87562,-4.389163 2.3801,-0.302157 4.75757,-0.60696 7.13238,-0.914408 0.61226,0.0026 1.22186,0.0026 1.82882,0 2.80684,-0.119276 5.61102,-0.241197 8.41256,-0.365764 2.44107,0.0026 4.8795,0.0026 7.31527,0 0.49034,0.368409 0.97802,0.734173 1.46306,1.097291 1.83146,0.0026 3.66028,0.0026 5.48645,0 5.61102,1.52666 11.2194,3.050675 16.82513,4.572044 3.29451,-1.277527 6.58638,-2.557699 9.87561,-3.840517 0.67321,-0.546 1.34378,-1.094645 2.0117,-1.645936 3.29452,-0.667921 6.58639,-1.338487 9.87562,-2.0117 2.74587,-0.911763 5.4891,-1.826172 8.22968,-2.743226 7.43983,1.343778 14.87703,2.684911 22.31157,4.023399 1.89243,0.734173 3.78221,1.4657 5.66934,2.194581 1.52666,0.856094 3.05067,1.709542 4.57204,2.560345 2.07531,1.221857 4.14797,2.441069 6.21798,3.657635 6.70831,0.673213 13.41398,1.343779 20.117,2.0117 3.41644,-1.277527 6.83023,-2.557699 10.24138,-3.840517 0.55129,-0.728882 1.09993,-1.460409 1.64593,-2.194582 2.19723,-1.338487 4.39181,-2.67962 6.58375,-4.023399 4.20892,0.246488 8.4152,0.490331 12.61884,0.731527 2.50203,0.917055 5.00141,1.831464 7.49815,2.743227 l 0.36576,43.160098 c -2.19193,1.343779 -4.38651,2.684912 -6.58374,4.023399 -0.60696,0.612252 -1.21657,1.221858 -1.82882,1.828818 -0.97272,0.246488 -1.94809,0.490331 -2.92611,0.731527 -6.58109,-0.119275 -13.16484,-0.241196 -19.75123,-0.365763 -1.21656,-1.216566 -2.43577,-2.435778 -3.65763,-3.657636 -4.50844,-1.460408 -9.01952,-2.923462 -13.53325,-4.389162 -5.84957,1.953384 -11.70179,3.904123 -17.55665,5.852216 -7.43455,0.856095 -14.87174,1.709543 -22.31158,2.560345 -6.70302,-2.557699 -13.40868,-5.118044 -20.117,-7.681034 -0.72888,-0.60696 -1.4604,-1.216566 -2.19458,-1.828818 -1.94809,-0.850802 -3.89883,-1.704251 -5.85221,-2.560345 -0.60696,0.124567 -1.21657,0.246488 -1.82882,0.365764 -3.65499,0.0026 -7.31263,0.0026 -10.97291,0 -4.63036,0.246488 -9.26336,0.49033 -13.89901,0.731527 -4.75228,2.197227 -9.50721,4.391808 -14.26478,6.583744 -8.40992,0.124567 -16.82248,0.246488 -25.23769,0.365763 C 110.829,69.672298 104.61102,69.550377 98.390394,69.42581 91.687375,66.380426 84.98171,63.332396 78.273399,60.281721 c -2.67962,0.0026 -5.361886,0.0026 -8.046798,0 -4.264596,0.0026 -8.531837,0.0026 -12.801724,0 -3.167305,1.4657 -6.337256,2.928754 -9.509852,4.389163 -4.386517,0.124567 -8.77568,0.246488 -13.167488,0.365763 -3.289226,0.36841 -6.581098,0.734173 -9.875616,1.097291 -8.166073,0.368408 -16.3347924,0.734171 -24.50615746,1.097288 V 24.071129 c 1.70954236,-0.728881 3.41643896,-1.460408 5.12068966,-2.19458 1.4047394,-0.119276 2.806833,-0.241197 4.2062808,-0.365764 2.806833,-0.241196 5.61102,-0.485039 8.412562,-0.731527 2.745872,0.795133 5.489099,1.587621 8.229679,2.377463 1.526661,0.246488 3.050676,0.490331 4.572045,0.731527 1.404739,0.42937 2.806833,0.856094 4.206281,1.280173 0.856094,0.06361 1.709542,0.124567 2.560344,0.182881 3.172597,0.307449 6.342548,0.612252 9.509853,0.914409 0.551291,0.06361 1.099936,0.124567 1.645936,0.182882 1.52666,-0.667921 3.050675,-1.338487 4.572044,-2.0117 1.221858,-0.119275 2.441069,-0.241196 3.657635,-0.365763 0.734173,-0.363118 1.4657,-0.728881 2.194582,-1.097291 1.221857,-0.241196 2.441069,-0.485039 3.657635,-0.731527 1.160897,-0.545999 2.319148,-1.094645 3.474754,-1.645936 3.294518,0.06361 6.586389,0.124567 9.875616,0.182882 2.56299,0.0026 5.123335,0.0026 7.681034,0 0.490331,0.612252 0.978015,1.221858 1.463054,1.828818 z" />
  </g>
  <g
     inkscape:groupmode="layer"
     id="layer4"
     inkscape:label="TopCloud">
    <path
       style="fill:#e6e6e6;stroke:none;stroke-width:0.371162px;stroke-linecap:butt;stroke-linejoin:miter;stroke-opacity:1"
       d="m 0,55.89468 c -0.07466681,15.50817 -0.14933487,31.0166 -0.19291758,40.06543 -0.0435827,9.04883 -0.0552794,11.47218 4.38277838,12.36098 4.4380578,0.8888 15.2102142,0.4224 20.7277932,0.2097 5.517579,-0.21271 6.724537,-0.21271 8.44666,-1.73854 1.722124,-1.52584 3.963622,-4.57963 5.819265,-6.10759 1.855643,-1.527952 3.321235,-1.527952 7.546244,-0.33969 4.225009,1.18825 11.208124,3.56343 16.467022,6.4488 5.258898,2.88537 8.793566,6.27847 13.103463,7.97311 4.309898,1.69464 9.396365,1.69464 12.109977,1.27227 2.713612,-0.42236 3.058455,-1.27063 3.491557,-1.69655 0.433101,-0.42591 0.950368,-0.42591 1.639516,-0.51089 0.689149,-0.085 1.551261,-0.25463 3.706682,-0.59393 2.155421,-0.33929 5.60387,-0.84825 9.52604,-1.78137 3.92217,-0.93311 8.31894,-2.29035 11.29408,-2.96883 2.97514,-0.67847 4.52695,-0.67847 7.84485,-1.8661 3.3179,-1.18762 8.40436,-3.56279 12.4578,-4.5805 4.05344,-1.01771 7.07084,-0.6784 11.08016,1.35885 4.00933,2.03724 9.00959,5.76966 14.00987,9.24738 5.00028,3.47773 10.00053,6.70116 13.66371,8.31152 3.66318,1.61035 5.99089,1.61035 9.7841,1.52548 3.79321,-0.0849 9.0521,-0.25453 19.00793,-5.42873 9.95584,-5.17421 24.61176,-15.3535 35.51927,-20.273651 10.9075,-4.920148 18.06303,-4.580838 23.23632,-3.052265 5.17329,1.528573 8.36311,4.243053 11.38018,5.853338 3.01708,1.610288 5.86205,2.119248 9.83004,6.388558 3.96799,4.2693 9.04663,12.27462 11.86864,15.00323 2.82201,2.72861 3.37978,0.16828 3.42291,-4.85841 0.0431,-5.02669 -0.42842,-12.51983 -0.66421,-23.052729 -0.23579,-10.532895 -0.23579,-24.105434 -0.23579,-37.677835 -2.6685,-1.016389 -5.34105,-2.034318 -8.18595,-3.645274 -2.84489,-1.610956 -5.86229,-3.816473 -9.35462,-4.920767 -3.49234,-1.104294 -7.45806,-1.104294 -13.14813,-0.934694 -5.69006,0.1696 -13.10423,0.50891 -17.97566,0.932946 -4.87142,0.424035 -7.19912,0.933 -8.83653,1.18764 -1.63741,0.25464 -2.58574,0.25464 -6.98346,1.611749 -4.39772,1.35711 -12.24295,4.071591 -16.68348,5.768447 -4.44052,1.696857 -5.47506,2.375478 -7.06838,2.714612 -1.59331,0.339133 -3.7486,0.339133 -8.27469,0.339133 -4.52609,0 -11.423,0 -15.60346,-0.507499 -4.18045,-0.507499 -5.64604,-1.525428 -9.6989,-1.866266 -4.05285,-0.340838 -10.69112,-0.0015 -16.42324,-1.272613 -5.73212,-1.271085 -10.55995,-4.155218 -15.47428,-6.191909 -4.91433,-2.036692 -9.91458,-3.224276 -15.34626,-3.988075 -5.43169,-0.7638 -11.29405,-1.103109 -19.14019,0.08423 -7.84613,1.187345 -17.67422,3.901825 -23.149082,5.51365 -5.474862,1.611825 -6.595609,2.12079 -7.458348,2.630238 -0.86274,0.509448 -1.466219,1.018413 -3.275444,1.611617 -1.809225,0.593205 -4.82662,1.271825 -6.680831,1.780931 -1.854211,0.509107 -2.543901,0.848416 -3.448246,1.102779 -0.904346,0.254362 -2.025091,0.424017 -5.214332,0.339422 -3.189241,-0.08459 -8.44813,-0.423904 -12.542545,-1.356005 -4.094414,-0.932101 -7.025598,-2.458996 -10.086116,-3.985988 -3.060518,-1.526992 -6.250336,-3.053887 -9.656449,-3.818335 -3.406113,-0.764448 -7.026988,-0.764448 -9.009545,-1.016532 -1.982558,-0.252084 -2.327403,-0.761049 -4.65617,-0.424293 -2.328767,0.336756 -6.639332,1.524342 -9.4415034,2.37267 -2.8021717,0.848329 -4.0953414,1.357293 -4.9152014,2.207716 -0.81986,0.850424 -1.1647052,2.038009 -1.5083617,3.2215"
       id="path2351"
       inkscape:path-effect="#path-effect2353"
       inkscape:original-d="m 0,55.89468 c 0,0 -0.14906904,31.016601 -0.22400043,46.52451 -0.012491,2.58975 -0.0239306,5.0131 -0.0346335,7.17545 8.88656443,-0.38448 19.65872093,-0.85087 29.48426293,-1.27656 1.209604,0.005 2.416562,0.005 3.620874,0 2.24414,-3.04858 4.485633,-6.10238 6.724481,-9.161372 1.468238,0.0051 2.93383,0.0051 4.396776,0 6.985761,2.380372 13.968876,4.755542 20.949345,7.125512 3.537309,3.3983 7.071972,6.79141 10.603989,10.1793 5.089112,0.005 10.175579,0.005 15.259399,0 0.347491,-0.84307 0.692337,-1.69134 1.034536,-2.54483 0.519914,0.005 1.037181,0.005 1.551803,0 0.864759,-0.16445 1.726872,-0.3341 2.586339,-0.50896 3.451098,-0.50376 6.899549,-1.01272 10.345359,-1.5269 4.39942,-1.35203 8.79619,-2.70927 13.19032,-4.07172 1.55445,0.005 3.10626,0.005 4.65541,0 5.08912,-2.36996 10.17558,-4.74513 15.2594,-7.12551 3.02004,0.34452 6.03744,0.68383 9.05219,1.01793 5.0029,3.73762 10.00316,7.47003 15.00076,11.19723 5.00291,3.22866 10.00316,6.45209 15.00077,9.67032 2.33035,0.006 4.65806,0.006 6.98312,0 5.26153,-0.16452 10.52042,-0.33411 15.77666,-0.50898 14.65857,-10.17406 29.31449,-20.35336 43.96776,-30.537867 7.15819,0.344516 14.31372,0.683827 21.46661,1.017931 3.19247,2.719685 6.38229,5.434166 9.56946,8.143436 2.84762,0.51418 5.69259,1.02314 8.53492,1.5269 5.09454,8.03022 10.17318,16.03553 15.2594,24.05295 0.55804,-2.56008 1.11581,-5.12041 1.67331,-7.68099 -0.47129,-7.49289 -0.94285,-14.98603 -1.41468,-22.479542 2.6e-4,-13.572262 0,-40.717202 0,-40.717202 -2.6699,-1.012723 -5.34245,-2.030654 -8.01765,-3.053789 -3.01475,-2.200308 -6.03215,-4.405824 -9.05219,-6.616546 -3.96307,0.0051 -7.92879,0.0051 -11.89716,0 -7.41152,0.344518 -14.82569,0.683826 -22.24251,1.01793 -2.32506,0.514172 -4.65276,1.023138 -6.98311,1.526896 -0.94568,0.0051 -1.89401,0.0051 -2.84498,0 -7.84258,2.719686 -15.68781,5.434166 -23.53568,8.14344 -1.03189,0.683827 -2.06643,1.362446 -3.10361,2.035861 -2.15263,0.0051 -4.30792,0.0051 -6.46584,0 -6.89426,0.0051 -13.79117,0.0051 -20.69071,0 -1.46295,-1.012724 -2.92854,-2.030654 -4.39678,-3.053792 -6.63562,0.344518 -13.27389,0.683827 -19.91481,1.017931 -4.82519,-2.878928 -9.65302,-5.763063 -14.4835,-8.652405 -4.99761,-1.182378 -9.99786,-2.369963 -15.00076,-3.562755 -5.85973,-0.334104 -11.72209,-0.673415 -17.58711,-1.017931 -9.82544,2.719688 -19.653526,5.434167 -29.48426,8.14344 -1.118101,0.514173 -2.238848,1.023138 -3.36224,1.526896 -0.600834,0.514172 -1.204313,1.023136 -1.810438,1.526894 -3.014749,0.683827 -6.032144,1.362448 -9.052185,2.035861 -0.687045,0.344516 -1.376735,0.683827 -2.069072,1.01793 -1.118101,0.174868 -2.238847,0.344516 -3.36224,0.508966 -5.256243,-0.334104 -10.515132,-0.673415 -15.776667,-1.017931 -2.928538,-1.521689 -5.859722,-3.048584 -8.793552,-4.580685 -3.187172,-1.521689 -6.37699,-3.048585 -9.569454,-4.580685 -3.618228,0.0051 -7.239103,0.0051 -10.862623,0 -0.342199,-0.503759 -0.687044,-1.012724 -1.034535,-1.526896 -4.307919,1.192792 -8.618484,2.380377 -12.9316947,3.562757 -1.2905235,0.51417 -2.583693,1.023135 -3.8795082,1.526893 -0.3421994,1.192792 -0.6870446,2.380377 -1.0345356,3.562755"
       sodipodi:nodetypes="ccccccccccccccccccccccccccccccccccccccccccccccccccccccccccc" />
  </g>
  <g
     inkscape:groupmode="layer"
     id="layer5"
     inkscape:label="Mountains">
    <path
       style="mix-blend-mode:darken;fill:url(#linearGradient7171);fill-opacity:1;stroke:none;stroke-width:0.264583px;stroke-linecap:butt;stroke-linejoin:miter;stroke-opacity:1"
       d="m -1.6636952,107.24479 c 0.050821,-0.0144 0.1524344,-0.0431 0.87132868,-0.24695 0.71889423,-0.2038 2.05090502,-0.58145 4.60576732,-1.6292 2.5548624,-1.04776 6.3607292,-2.7777 8.9464682,-4.32923 2.585738,-1.551527 3.965122,-2.930909 6.897015,-4.482985 2.931894,-1.552076 7.41488,-3.276301 9.914298,-4.396775 2.499418,-1.120474 3.016687,-1.637742 4.655635,-2.241455 1.638948,-0.603712 4.39771,-1.293403 7.243207,-1.46542 2.845497,-0.172017 5.776681,0.172828 8.880153,0.34508 3.103471,0.172251 6.3795,0.172251 8.879693,0.949402 2.500193,0.777151 4.224418,2.328953 5.776421,3.449245 1.552003,1.120291 2.931383,1.809981 8.879921,5.431025 5.948538,3.621043 16.466318,10.173103 23.016992,12.413503 6.550676,2.2404 9.137016,0.17133 11.551246,-1.46681 2.41422,-1.63814 4.65571,-2.8451 8.7074,-5.60378 4.05169,-2.75867 9.91405,-7.069231 14.91449,-10.431544 5.00044,-3.362313 9.13858,-5.776232 12.75935,-8.017687 3.62077,-2.241456 6.72437,-4.310528 8.96556,-6.034551 2.24119,-1.724023 3.62057,-3.103404 6.12196,-1.808853 2.50138,1.294551 6.12226,5.260274 8.9674,8.105058 2.84515,2.844783 4.91422,4.569006 7.50014,7.759157 2.58593,3.190152 5.68954,7.84556 7.24032,10.34548 1.55079,2.49993 1.55079,2.84478 1.63739,3.36228 0.0866,0.5175 0.25902,1.20719 1.03612,1.89612 0.7771,0.68892 2.15648,1.37861 2.93159,1.89668 0.77511,0.51806 0.94753,0.8629 3.18879,-0.001 2.24126,-0.86397 6.55182,-2.93303 11.89669,-6.03659 5.34487,-3.10355 11.72451,-7.241688 17.93141,-12.24175 6.20691,-5.000062 12.2417,-10.862427 17.50093,-15.1732 5.25924,-4.310774 9.74223,-7.069537 12.0693,-8.70653 2.32707,-1.636994 2.4995,-2.154262 2.84619,-2.32695 0.3467,-0.172688 0.86397,-2.64e-4 2.67403,1.897271 1.81007,1.897534 4.91368,5.518408 6.72343,8.10492 1.80975,2.586512 2.32701,4.138314 3.7934,6.120911 1.46639,1.982598 3.8803,4.396515 8.01837,8.879569 4.13807,4.483055 10.00043,11.035109 13.62139,15.000759 3.62095,3.96565 4.99109,5.3358 6.18299,6.46737 1.1919,1.13157 2.18108,2.00113 2.6765,2.43665 0.49542,0.43551 0.49542,0.43551 0.49542,0.43551 0,0 0,0 0.0109,15.9342 0.0109,15.9342 0.0326,47.86234 0.0543,79.76061 0,0 -300.4720133,-2.61803 -300.4720133,-2.61803 0,0 -0.015508,-99.68131 -0.015508,-99.68131 -0.049068,-0.67856 -0.098189,-1.35785 -0.1226973,-1.69677 -0.024508,-0.33892 -0.024508,-0.33897 0.026313,-0.35336 z"
       id="path3910"
       inkscape:original-d="m -1.7145166,107.25918 c 0.1017211,-0.0285 0.2032402,-0.0576 0.3048232,-0.0863 1.33629777,-0.37857 2.6683218,-0.75617 3.9960322,-1.13294 3.7820686,-1.71874 7.5892402,-3.44581 11.3798912,-5.17268 1.382026,-1.376728 2.761407,-2.756113 4.138142,-4.13814 4.485633,-1.72158 8.96862,-3.445803 13.44896,-5.172675 0.519914,-0.514623 1.037183,-1.031891 1.551805,-1.551805 2.761406,-0.687044 5.520169,-1.376733 8.276283,-2.069071 2.93383,0.34749 5.865014,0.692338 8.793554,1.034537 3.278674,0.0026 6.554703,0.0026 9.828086,0 1.726871,1.554448 3.451097,3.10625 5.172678,4.655409 1.382027,0.692336 2.761408,1.382025 4.138141,2.069071 10.520423,6.554704 21.038203,13.106764 31.553331,19.656174 2.58899,-2.06643 5.17533,-4.1355 7.75902,-6.20721 2.24414,-1.20432 4.48563,-2.41127 6.72448,-3.62088 5.86502,-4.30792 11.72738,-8.61848 17.5871,-12.931691 4.14079,-2.41127 8.27894,-4.825185 12.41443,-7.241749 3.10625,-2.066425 6.20986,-4.135496 9.31082,-6.207212 1.38203,-1.376736 2.76141,-2.756117 4.13814,-4.138142 3.62352,3.968364 7.2444,7.934084 10.86262,11.897159 2.07172,1.726872 4.14079,3.451095 6.20722,5.172675 3.10625,4.658056 6.20986,9.31346 9.31082,13.96623 0.003,0.34749 0.003,0.69234 0,1.03453 0.17507,0.69234 0.34749,1.38203 0.51727,2.06908 1.38202,0.69233 2.7614,1.38202 4.13814,2.06907 0.17507,0.34749 0.34749,0.69233 0.51727,1.03453 4.31321,-2.06642 8.62377,-4.13549 12.93169,-6.20721 6.38228,-4.1355 12.76192,-8.273637 19.13891,-12.414425 6.03744,-5.859721 12.07222,-11.722091 18.10437,-17.587105 4.48563,-2.756114 8.96862,-5.514877 13.44896,-8.276283 0.17507,-0.514622 0.34749,-1.031891 0.51727,-1.551805 0.51991,0.17507 1.03718,0.347493 1.5518,0.517268 3.10625,3.623522 6.20986,7.244395 9.31083,10.862625 0.51991,1.554448 1.03717,3.106251 1.55179,4.65541 2.41657,2.416561 4.83049,4.830477 7.24175,7.241746 5.86502,6.554706 11.72739,13.106759 17.58712,19.656179 1.38202,1.38202 2.75216,2.75217 4.13813,4.13814 0.99782,0.87719 1.98699,1.74675 2.97785,2.61776 2.6e-4,2.6e-4 0,0 0,0 2.6e-4,2.6e-4 2.6e-4,2.6e-4 0,0 0.022,31.8684 0.0652,95.69481 0.0652,95.69481 l -300.4720133,-2.61803 -0.015508,-99.68131 c 0,0 -0.097945,-1.35787 -0.1472053,-2.03569 z"
       inkscape:path-effect="#path-effect3912"
       sodipodi:nodetypes="cccccccccccccccccccccccccccccccccccccccccccc" />
  </g>
</svg>
