<?xml version="1.0" encoding="UTF-8" standalone="no"?>
<!-- Created with Inkscape (http://www.inkscape.org/) -->

<svg
   width="297mm"
   height="80mm"
   viewBox="0 0 297 80"
   version="1.1"
   id="svg862"
   inkscape:version="1.1 (c68e22c387, 2021-05-23)"
   sodipodi:docname="frontCloud.svg"
   xmlns:inkscape="http://www.inkscape.org/namespaces/inkscape"
   xmlns:sodipodi="http://sodipodi.sourceforge.net/DTD/sodipodi-0.dtd"
   xmlns="http://www.w3.org/2000/svg"
   xmlns:svg="http://www.w3.org/2000/svg">
  <sodipodi:namedview
     id="namedview864"
     pagecolor="#ffffff"
     bordercolor="#666666"
     borderopacity="1.0"
     inkscape:pageshadow="2"
     inkscape:pageopacity="0.0"
     inkscape:pagecheckerboard="0"
     inkscape:document-units="mm"
     showgrid="false"
     inkscape:zoom="0.67081229"
     inkscape:cx="512.06575"
     inkscape:cy="322.74304"
     inkscape:window-width="1920"
     inkscape:window-height="1001"
     inkscape:window-x="-9"
     inkscape:window-y="-9"
     inkscape:window-maximized="1"
     inkscape:current-layer="layer1"
     height="100mm" />
  <defs
     id="defs859">
    <inkscape:path-effect
       effect="bspline"
       id="path-effect1980"
       is_visible="true"
       lpeversion="1"
       weight="33.333333"
       steps="2"
       helper_size="0"
       apply_no_weight="true"
       apply_with_weight="true"
       only_selected="false" />
    <inkscape:path-effect
       effect="bspline"
       id="path-effect1997"
       is_visible="true"
       lpeversion="1"
       weight="33.333333"
       steps="2"
       helper_size="0"
       apply_no_weight="true"
       apply_with_weight="true"
       only_selected="false" />
    <inkscape:path-effect
       effect="bspline"
       id="path-effect2353"
       is_visible="true"
       lpeversion="1"
       weight="33.333333"
       steps="2"
       helper_size="0"
       apply_no_weight="true"
       apply_with_weight="true"
       only_selected="false" />
  </defs>
  <g
     inkscape:label="Layer 1"
     inkscape:groupmode="layer"
     id="layer1">
    <path
       style="fill:#e6e6e6;stroke:none;stroke-width:0.371162px;stroke-linecap:butt;stroke-linejoin:miter;stroke-opacity:1"
       d="m 0.77294709,11.922981 c -0.0746667,15.50817 -0.14933459,31.0166 -0.19291659,40.065429 -0.043582,9.04883 -0.0552775,11.472179 4.3827806,12.360978 4.4380581,0.888798 15.2102149,0.422403 20.7277939,0.209697 5.517579,-0.212705 6.724537,-0.212705 8.44666,-1.738538 1.722124,-1.525833 3.963622,-4.57963 5.819265,-6.107583 1.855643,-1.527954 3.321235,-1.527954 7.546244,-0.339696 4.225009,1.188258 11.208124,3.563428 16.467024,6.448799 5.258899,2.885371 8.793566,6.278474 13.103464,7.973115 4.309897,1.69464 9.396357,1.69464 12.109973,1.272274 2.713616,-0.422366 3.058457,-1.270636 3.49156,-1.69655 0.433104,-0.425914 0.950364,-0.425914 1.639512,-0.510894 0.689148,-0.08498 1.551267,-0.254635 3.706686,-0.593927 2.155417,-0.339291 5.603867,-0.848257 9.526037,-1.781372 3.92217,-0.933114 8.31894,-2.290354 11.29408,-2.968828 2.97514,-0.678475 4.52695,-0.678475 7.84485,-1.866102 3.3179,-1.187628 8.40436,-3.562795 12.4578,-4.580505 4.05344,-1.017709 7.07084,-0.678399 11.08016,1.358848 4.00933,2.037247 9.00959,5.769662 14.00987,9.247389 5.00028,3.477728 10.00053,6.701162 13.66371,8.311514 3.66318,1.610353 5.99089,1.610353 9.7841,1.525483 3.79321,-0.08487 9.0521,-0.25453 19.00793,-5.428735 9.95584,-5.174204 24.61176,-15.353498 35.51927,-20.273647 10.9075,-4.920148 18.06303,-4.580838 23.23632,-3.052265 5.17329,1.528573 8.36311,4.243052 11.38018,5.853337 3.01708,1.610285 5.86205,2.119251 9.83004,6.388558 3.96799,4.269306 9.04663,12.274617 11.86864,15.003231 2.82201,2.728614 3.37978,0.168284 3.42291,-4.85841 0.0431,-5.026693 -0.42842,-12.519835 -0.66421,-23.05273 -0.23579,-10.532894 -0.23579,-24.105433 -0.23579,-37.677834 -2.6685,-1.016389 -5.34105,-2.0343183 -8.18595,-3.6452742 -2.84489,-1.6109558 -5.86229,-3.816473 -9.35462,-4.9207668 -3.49234,-1.1042939 -7.45806,-1.1042939 -13.14813,-0.934694 -5.69006,0.1696 -13.10423,0.50891 -17.97566,0.9329457 -4.87142,0.4240357 -7.19912,0.9330004 -8.83653,1.1876404 -1.63741,0.25464 -2.58574,0.25464 -6.98346,1.6117494 -4.39772,1.3571093 -12.24295,4.0715903 -16.68348,5.7684465 -4.44052,1.696857 -5.47506,2.375478 -7.06838,2.714612 -1.59331,0.339133 -3.7486,0.339133 -8.27469,0.339133 -4.52609,0 -11.423,0 -15.60346,-0.507499 -4.18045,-0.507499 -5.64604,-1.525428 -9.6989,-1.866266 -4.05285,-0.340838 -10.69112,-0.0015 -16.42324,-1.272613 C 157.07827,9.5503464 152.25044,6.6662129 147.33611,4.6295216 142.42178,2.5928304 137.42153,1.4052461 131.98985,0.64144677 126.55816,-0.1223526 120.6958,-0.46166236 112.84966,0.72568229 105.00353,1.9130269 95.175445,4.6275053 89.70058,6.2393309 c -5.474864,1.6118255 -6.595613,2.120792 -7.458351,2.6302386 -0.862738,0.5094467 -1.466218,1.018411 -3.27544,1.6116155 -1.809222,0.593205 -4.826622,1.271827 -6.680834,1.780934 -1.854213,0.509108 -2.543903,0.848418 -3.448247,1.102779 -0.904344,0.254361 -2.025089,0.424016 -5.21433,0.339422 -3.189241,-0.08459 -8.44813,-0.423905 -12.542545,-1.356006 C 46.986419,11.416213 44.055235,9.8893184 40.994717,8.3623262 37.934199,6.8353341 34.744381,5.3084389 31.338268,4.543991 27.932155,3.7795431 24.31128,3.7795431 22.328723,3.5274589 20.346165,3.2753748 20.00132,2.7664097 17.672553,3.1031661 15.343786,3.4399225 11.033221,4.6275081 8.2310497,5.4758365 5.4288781,6.3241648 4.135708,6.8331295 3.3158482,7.6835525 2.4959884,8.5339756 2.1511434,9.7215606 1.8074871,10.905052"
       id="path2351"
       inkscape:path-effect="#path-effect2353"
       inkscape:original-d="m 0.77294709,11.922981 c 0,0 -0.149069,31.016601 -0.224,46.524509 -0.01249,2.58975 -0.02393,5.0131 -0.03463,7.175452 C 9.4008811,65.238462 20.173038,64.772072 29.99858,64.34638 c 1.209604,0.005 2.416562,0.005 3.620874,0 2.24414,-3.04858 4.485633,-6.10238 6.724481,-9.16137 1.468238,0.005 2.93383,0.005 4.396776,0 6.985761,2.38037 13.968876,4.75554 20.949345,7.12551 3.537313,3.398302 7.071973,6.791412 10.603993,10.179302 5.08911,0.005 10.17557,0.005 15.2594,0 0.34749,-0.84307 0.69233,-1.69134 1.03453,-2.54483 0.51992,0.005 1.03718,0.005 1.5518,0 0.86476,-0.16445 1.72688,-0.3341 2.58634,-0.50896 3.451101,-0.50376 6.899551,-1.01272 10.345361,-1.5269 4.39942,-1.35203 8.79619,-2.70927 13.19032,-4.071722 1.55445,0.005 3.10626,0.005 4.65541,0 5.08912,-2.36996 10.17558,-4.74513 15.2594,-7.12551 3.02004,0.34452 6.03744,0.68383 9.05219,1.01793 5.0029,3.73762 10.00316,7.470032 15.00076,11.197232 5.00291,3.22866 10.00316,6.45209 15.00077,9.67032 2.33035,0.006 4.65806,0.006 6.98312,0 5.26153,-0.16452 10.52042,-0.33411 15.77666,-0.50898 14.65857,-10.17406 29.31449,-20.353362 43.96776,-30.537868 7.15819,0.344516 14.31372,0.683827 21.46661,1.017931 3.19247,2.719685 6.38229,5.434165 9.56946,8.143435 2.84762,0.51418 5.69259,1.02314 8.53492,1.5269 5.09454,8.030222 10.17318,16.035532 15.2594,24.052952 0.55804,-2.56008 1.11581,-5.12041 1.67331,-7.68099 -0.47129,-7.49289 -0.94285,-14.986032 -1.41468,-22.479543 2.6e-4,-13.572262 0,-40.717202 0,-40.717202 -2.6699,-1.012723 -5.34245,-2.0306539 -8.01765,-3.0537889 -3.01475,-2.200308 -6.03215,-4.405824 -9.05219,-6.616546 -3.96307,0.0051 -7.92879,0.0051 -11.89716,0 -7.41152,0.344518 -14.82569,0.683826 -22.24251,1.01793 -2.32506,0.514172 -4.65276,1.023138 -6.98311,1.526896 -0.94568,0.0051 -1.89401,0.0051 -2.84498,0 -7.84258,2.719686 -15.68781,5.434166 -23.53568,8.1434399 -1.03189,0.683827 -2.06643,1.362446 -3.10361,2.035861 -2.15263,0.0051 -4.30792,0.0051 -6.46584,0 -6.89426,0.0051 -13.79117,0.0051 -20.69071,0 -1.46295,-1.012724 -2.92854,-2.030654 -4.39678,-3.053792 -6.63562,0.344518 -13.27389,0.683827 -19.91481,1.017931 -4.82519,-2.8789279 -9.65302,-5.7630629 -14.4835,-8.6524049 -4.99761,-1.182378 -9.99786,-2.369963 -15.00076,-3.56275504 -5.85973,-0.334104 -11.72209,-0.673415 -17.58711,-1.017931 -9.82544,2.71968804 -19.653521,5.43416704 -29.484261,8.14344004 -1.1181,0.514173 -2.23885,1.023138 -3.36224,1.526896 -0.60083,0.514172 -1.20431,1.023136 -1.81044,1.5268939 -3.01474,0.683827 -6.03214,1.362448 -9.05218,2.035861 -0.68705,0.344516 -1.37674,0.683827 -2.06907,1.01793 -1.118104,0.174868 -2.23885,0.344516 -3.362243,0.508966 C 60.433813,13.62474 55.174924,13.285429 49.913389,12.940913 46.984851,11.419224 44.053667,9.8923291 41.119837,8.3602281 c -3.187172,-1.521689 -6.37699,-3.048585 -9.569454,-4.580685 -3.618228,0.0051 -7.239103,0.0051 -10.862623,0 -0.342199,-0.503759 -0.687044,-1.012724 -1.034535,-1.526896 -4.307919,1.192792 -8.618484,2.380377 -12.9316949,3.562757 -1.290523,0.51417 -2.583693,1.023135 -3.879508,1.526893 -0.342199,1.192792 -0.687044,2.380377 -1.034535,3.5627549"
       sodipodi:nodetypes="ccccccccccccccccccccccccccccccccccccccccccccccccccccccccccc" />
  </g>
</svg>
