<?xml version="1.0" encoding="UTF-8" standalone="no"?>
<!-- Created with Inkscape (http://www.inkscape.org/) -->

<svg
   width="297mm"
   height="80mm"
   viewBox="0 0 297 80"
   version="1.1"
   id="svg862"
   inkscape:version="1.1 (c68e22c387, 2021-05-23)"
   sodipodi:docname="MidCloud.svg"
   xmlns:inkscape="http://www.inkscape.org/namespaces/inkscape"
   xmlns:sodipodi="http://sodipodi.sourceforge.net/DTD/sodipodi-0.dtd"
   xmlns="http://www.w3.org/2000/svg"
   xmlns:svg="http://www.w3.org/2000/svg">
  <sodipodi:namedview
     id="namedview864"
     pagecolor="#ffffff"
     bordercolor="#666666"
     borderopacity="1.0"
     inkscape:pageshadow="2"
     inkscape:pageopacity="0.0"
     inkscape:pagecheckerboard="0"
     inkscape:document-units="mm"
     showgrid="false"
     inkscape:zoom="0.67081229"
     inkscape:cx="512.06575"
     inkscape:cy="442.00144"
     inkscape:window-width="1920"
     inkscape:window-height="1001"
     inkscape:window-x="-9"
     inkscape:window-y="-9"
     inkscape:window-maximized="1"
     inkscape:current-layer="layer1"
     height="100mm" />
  <defs
     id="defs859">
    <inkscape:path-effect
       effect="bspline"
       id="path-effect1980"
       is_visible="true"
       lpeversion="1"
       weight="33.333333"
       steps="2"
       helper_size="0"
       apply_no_weight="true"
       apply_with_weight="true"
       only_selected="false" />
    <inkscape:path-effect
       effect="bspline"
       id="path-effect1997"
       is_visible="true"
       lpeversion="1"
       weight="33.333333"
       steps="2"
       helper_size="0"
       apply_no_weight="true"
       apply_with_weight="true"
       only_selected="false" />
  </defs>
  <g
     inkscape:label="Layer 1"
     inkscape:groupmode="layer"
     id="layer1">
    <path
       style="fill:#ececec;stroke:none;stroke-width:0.264583px;stroke-linecap:butt;stroke-linejoin:miter;stroke-opacity:1"
       d="m 83.619252,17.305804 c 0.731952,0.547986 1.70732,1.035668 3.505652,1.980609 1.798331,0.944941 4.41963,2.347032 7.497949,3.138748 3.078319,0.791717 6.614037,0.9746 9.204747,1.035441 2.59071,0.06084 4.23664,-1.22e-4 5.3325,-0.396107 1.09586,-0.395986 1.6445,-1.12751 3.56554,-2.225287 1.92103,-1.097777 5.2129,-2.560828 8.04809,-3.444629 2.83518,-0.883802 5.21265,-1.188606 6.70638,-1.340862 1.49372,-0.152256 2.10332,-0.152256 3.81016,-0.213271 1.70684,-0.06101 4.51102,-0.182935 7.13239,-0.24384 2.62136,-0.0609 5.05979,-0.0609 6.523,0.12309 1.46322,0.183995 1.9509,0.549754 3.10899,0.731524 1.15809,0.181771 2.98691,0.181771 6.70575,0.944203 3.71884,0.762432 9.32722,2.286446 13.77647,2.40767 4.44926,0.121224 7.74113,-1.158947 9.72179,-2.0732 1.98066,-0.914253 2.65123,-1.462903 4.63332,-2.072597 1.98209,-0.609694 5.27396,-1.28026 8.29129,-2.072807 3.01733,-0.792546 5.76056,-1.706957 10.85148,-1.493059 5.09093,0.213899 12.52813,1.555034 17.1917,2.59171 4.66357,1.036676 6.55335,1.768201 8.26022,2.560952 1.70687,0.79275 3.23088,1.646199 5.02921,2.682568 1.79833,1.03637 3.87099,2.25558 8.26003,3.199693 4.38904,0.944113 11.09471,1.61468 16.15372,1.309462 5.05901,-0.305217 8.47281,-1.585388 10.45314,-2.590753 1.98033,-1.005365 2.52898,-1.736894 3.90112,-2.773666 1.37215,-1.036772 3.56674,-2.377903 6.76819,-2.926238 3.20144,-0.548336 7.40772,-0.304496 10.76076,0.275132 3.35303,0.579628 5.85241,1.494037 7.10051,1.950659 1.2481,0.456622 1.61386,43.616722 0.51695,44.287059 -1.09692,0.670337 -3.2915,2.011469 -4.69397,2.987068 -1.40247,0.975598 -2.01207,1.585202 -2.80363,2.011691 -0.79155,0.426489 -1.76692,0.670333 -5.54606,0.731554 -3.77914,0.06122 -10.36289,-0.0607 -14.26439,-0.729968 -3.9015,-0.669269 -5.12071,-1.88848 -7.9856,-3.230424 -2.86489,-1.341944 -7.37597,-2.804996 -12.55841,-2.561932 -5.18244,0.243064 -11.03466,2.193805 -17.679,3.59603 -6.64434,1.402226 -14.08153,2.255672 -21.15253,1.402965 -7.07099,-0.852706 -13.77665,-3.413047 -17.49541,-4.997439 -3.71876,-1.584392 -4.45029,-2.193997 -5.79125,-2.926021 -1.34097,-0.732023 -3.29171,-1.585475 -4.57246,-1.95214 -1.28075,-0.366665 -1.89036,-0.244741 -4.02368,-0.183576 -2.13331,0.06117 -5.79095,0.06117 -9.93634,0.183021 -4.1454,0.121856 -8.7784,0.365699 -13.47302,1.584705 -4.69463,1.219006 -9.44956,3.413587 -16.03259,4.572089 -6.58303,1.158502 -14.99559,1.280422 -22.31081,1.280468 -7.31523,4.5e-5 -13.53321,-0.121875 -19.994785,-1.706152 -6.461576,-1.584276 -13.167237,-4.632305 -17.861474,-6.157046 -4.694238,-1.52474 -7.376508,-1.52474 -10.851263,-1.52474 -3.474755,0 -7.741993,0 -11.461325,0.731256 -3.719332,0.731255 -6.889281,2.194308 -10.66814,2.987032 -3.77886,0.792724 -8.168022,0.914647 -12.008663,1.158397 -3.840641,0.24375 -7.132512,0.609513 -12.862708,0.975349 -5.730197,0.365836 -13.8989156,0.7316 -17.9845364,0.914538 -4.0856208,0.182938 -4.0856208,-42.977162 -3.23153421,-43.343199 0.85408659,-0.366037 2.56098381,-1.097564 4.11603911,-1.524119 1.5550553,-0.426556 2.957148,-0.548479 5.0602885,-0.731361 2.10314,-0.182881 4.907327,-0.426721 7.681409,-0.151839 2.774082,0.274882 5.51731,1.067369 7.650853,1.585319 2.133543,0.517949 3.657557,0.761792 5.120695,1.097317 1.463137,0.335525 2.86523,0.762248 3.992832,1.00571 1.127602,0.243461 1.981051,0.304421 3.992777,0.487341 2.011726,0.182919 5.181677,0.487722 7.04099,0.670627 1.859312,0.182905 2.407959,0.243865 3.443457,-0.06137 1.035498,-0.305238 2.559511,-0.975803 3.931684,-1.371892 1.372172,-0.396089 2.591383,-0.518009 3.566104,-0.761997 0.974721,-0.243989 1.706246,-0.609751 2.682105,-0.914494 0.975858,-0.304742 2.195069,-0.548586 3.383352,-0.944895 1.188283,-0.39631 2.346536,-0.944954 4.572375,-1.188501 2.225839,-0.243546 5.517709,-0.182586 8.443795,-0.152131 2.926086,0.03045 5.486426,0.03045 7.01028,0.336709 1.523854,0.306254 2.011543,0.915864 2.743495,1.463849 z"
       id="path1995"
       inkscape:path-effect="#path-effect1997"
       inkscape:original-d="m 83.372663,17.364521 c 0.97801,0.49033 1.95338,0.97801 2.92611,1.46305 2.62395,1.40474 5.24525,2.80683 7.86391,4.20628 3.53836,0.18553 7.074077,0.36841 10.607147,0.54865 1.64858,-0.0583 3.29451,-0.11928 4.9378,-0.18289 0.55129,-0.72888 1.09994,-1.4604 1.64594,-2.19458 3.29452,-1.46041 6.58639,-2.92346 9.87562,-4.38916 2.3801,-0.30216 4.75757,-0.60696 7.13238,-0.91441 0.61226,0.003 1.22186,0.003 1.82882,0 2.80684,-0.11927 5.61102,-0.2412 8.41256,-0.36576 2.44107,0.003 4.8795,0.003 7.31527,0 0.49034,0.36841 0.97802,0.73417 1.46306,1.09729 1.83146,0.003 3.66028,0.003 5.48645,0 5.61102,1.52666 11.2194,3.05067 16.82513,4.57204 3.29451,-1.27752 6.58638,-2.5577 9.87561,-3.84051 0.67321,-0.546 1.34378,-1.09465 2.0117,-1.64594 3.29452,-0.66792 6.58639,-1.33849 9.87562,-2.0117 2.74587,-0.91176 5.4891,-1.82617 8.22968,-2.74323 7.43983,1.34378 14.87703,2.68491 22.31157,4.0234 1.89243,0.73418 3.78221,1.4657 5.66934,2.19458 1.52666,0.8561 3.05067,1.70955 4.57204,2.56035 2.07531,1.22186 4.14797,2.44107 6.21798,3.65763 6.70831,0.67322 13.41398,1.34378 20.117,2.0117 3.41644,-1.27752 6.83023,-2.5577 10.24138,-3.84051 0.55129,-0.72888 1.09993,-1.46041 1.64593,-2.19459 2.19723,-1.33848 4.39181,-2.67962 6.58375,-4.02339 4.20892,0.24648 8.4152,0.49033 12.61884,0.73152 2.50203,0.91706 5.00141,1.83147 7.49815,2.74323 l 0.36576,43.1601 c -2.19193,1.34378 -4.38651,2.68491 -6.58374,4.0234 -0.60696,0.61225 -1.21657,1.22185 -1.82882,1.82881 -0.97272,0.24649 -1.94809,0.49034 -2.92611,0.73153 -6.58109,-0.11927 -13.16484,-0.24119 -19.75123,-0.36576 -1.21656,-1.21657 -2.43577,-2.43578 -3.65763,-3.65764 -4.50844,-1.46041 -9.01952,-2.92346 -13.53325,-4.38916 -5.84957,1.95338 -11.70179,3.90412 -17.55665,5.85222 -7.43455,0.85609 -14.87174,1.70954 -22.31158,2.56034 -6.70302,-2.5577 -13.40868,-5.11804 -20.117,-7.68103 -0.72888,-0.60696 -1.4604,-1.21657 -2.19458,-1.82882 -1.94809,-0.8508 -3.89883,-1.70425 -5.85221,-2.56035 -0.60696,0.12457 -1.21657,0.24649 -1.82882,0.36577 -3.65499,0.003 -7.31263,0.003 -10.97291,0 -4.63036,0.24649 -9.26336,0.49033 -13.89901,0.73153 -4.75228,2.19722 -9.50721,4.3918 -14.26478,6.58374 -8.40992,0.12457 -16.82248,0.24649 -25.23769,0.36576 -6.21533,-0.11927 -12.43331,-0.24119 -18.653937,-0.36576 -6.70302,-3.04538 -13.40868,-6.09341 -20.11699,-9.14409 -2.67962,0.003 -5.36189,0.003 -8.0468,0 -4.2646,0.003 -8.531838,0.003 -12.801725,0 -3.167305,1.4657 -6.337256,2.92875 -9.509852,4.38916 -4.386517,0.12457 -8.77568,0.24649 -13.167488,0.36577 -3.289226,0.36841 -6.581098,0.73417 -9.875616,1.09729 -8.166073,0.36841 -16.3347922,0.73417 -24.5061572,1.09729 v -43.1601 c 1.70954199,-0.72888 3.416438,-1.46041 5.120689,-2.19458 1.40474,-0.11928 2.806833,-0.2412 4.206281,-0.36577 2.8068332,-0.24119 5.6110202,-0.48503 8.4125622,-0.73152 2.745872,0.79513 5.489099,1.58762 8.229679,2.37746 1.526661,0.24649 3.050676,0.49033 4.572045,0.73153 1.404739,0.42937 2.806833,0.85609 4.206281,1.28017 0.856094,0.0636 1.709542,0.12457 2.560344,0.18288 3.172597,0.30745 6.342548,0.61225 9.509853,0.91441 0.551291,0.0636 1.099936,0.12457 1.645936,0.18288 1.52666,-0.66792 3.050675,-1.33848 4.572044,-2.0117 1.221858,-0.11927 2.441069,-0.24119 3.657635,-0.36576 0.734173,-0.36312 1.4657,-0.72888 2.194582,-1.09729 1.221857,-0.2412 2.441069,-0.48504 3.657635,-0.73153 1.160897,-0.546 2.319152,-1.09464 3.474752,-1.64593 3.29452,0.0636 6.58639,0.12456 9.87562,0.18288 2.56299,0.003 5.12333,0.003 7.68103,0 0.49033,0.61225 0.97802,1.22186 1.46306,1.82882 z" />
  </g>
</svg>
