<?xml version="1.0" encoding="UTF-8" standalone="no"?>
<!-- Created with Inkscape (http://www.inkscape.org/) -->

<svg
   width="297mm"
   height="146mm"
   viewBox="0 0 297 146"
   version="1.1"
   id="svg862"
   inkscape:version="1.1 (c68e22c387, 2021-05-23)"
   sodipodi:docname="Mountains.svg"
   xmlns:inkscape="http://www.inkscape.org/namespaces/inkscape"
   xmlns:sodipodi="http://sodipodi.sourceforge.net/DTD/sodipodi-0.dtd"
   xmlns:xlink="http://www.w3.org/1999/xlink"
   xmlns="http://www.w3.org/2000/svg"
   xmlns:svg="http://www.w3.org/2000/svg">
  <sodipodi:namedview
     id="namedview864"
     pagecolor="#ffffff"
     bordercolor="#666666"
     borderopacity="1.0"
     inkscape:pageshadow="2"
     inkscape:pageopacity="0.0"
     inkscape:pagecheckerboard="0"
     inkscape:document-units="mm"
     showgrid="false"
     inkscape:zoom="0.67081229"
     inkscape:cx="512.06575"
     inkscape:cy="442.00144"
     inkscape:window-width="1920"
     inkscape:window-height="1001"
     inkscape:window-x="-9"
     inkscape:window-y="-9"
     inkscape:window-maximized="1"
     inkscape:current-layer="layer1"
     height="209mm" />
  <defs
     id="defs859">
    <inkscape:path-effect
       effect="bspline"
       id="path-effect1980"
       is_visible="true"
       lpeversion="1"
       weight="33.333333"
       steps="2"
       helper_size="0"
       apply_no_weight="true"
       apply_with_weight="true"
       only_selected="false" />
    <inkscape:path-effect
       effect="bspline"
       id="path-effect1997"
       is_visible="true"
       lpeversion="1"
       weight="33.333333"
       steps="2"
       helper_size="0"
       apply_no_weight="true"
       apply_with_weight="true"
       only_selected="false" />
    <inkscape:path-effect
       effect="bspline"
       id="path-effect2353"
       is_visible="true"
       lpeversion="1"
       weight="33.333333"
       steps="2"
       helper_size="0"
       apply_no_weight="true"
       apply_with_weight="true"
       only_selected="false" />
    <linearGradient
       inkscape:collect="always"
       xlink:href="#linearGradient7169"
       id="linearGradient7171"
       x1="146.90405"
       y1="99.315414"
       x2="148.45586"
       y2="205.3553"
       gradientUnits="userSpaceOnUse"
       gradientTransform="translate(1.2733638,-64.109298)" />
    <linearGradient
       inkscape:collect="always"
       id="linearGradient7169">
      <stop
         style="stop-color:#cccccc;stop-opacity:1;"
         offset="0"
         id="stop7165" />
      <stop
         style="stop-color:#cccccc;stop-opacity:0;"
         offset="1"
         id="stop7167" />
    </linearGradient>
    <inkscape:path-effect
       effect="bspline"
       id="path-effect3912"
       is_visible="true"
       lpeversion="1"
       weight="33.333333"
       steps="2"
       helper_size="0"
       apply_no_weight="true"
       apply_with_weight="true"
       only_selected="false" />
  </defs>
  <g
     inkscape:label="Layer 1"
     inkscape:groupmode="layer"
     id="layer1">
    <path
       style="mix-blend-mode:darken;fill:url(#linearGradient7171);fill-opacity:1;stroke:none;stroke-width:0.264583px;stroke-linecap:butt;stroke-linejoin:miter;stroke-opacity:1"
       d="m -0.39033186,43.1355 c 0.0508214,-0.01439 0.15243526,-0.04316 0.87132916,-0.246955 0.7188939,-0.203797 2.0509047,-0.581444 4.605767,-1.629199 2.5548623,-1.047755 6.3607287,-2.777695 8.9464687,-4.329226 2.585739,-1.551531 3.965124,-2.930917 6.897014,-4.482991 2.93189,-1.552074 7.41488,-3.276302 9.914297,-4.396774 2.499417,-1.120472 3.016688,-1.637741 4.655636,-2.241454 1.638947,-0.603714 4.397706,-1.293407 7.243205,-1.465426 2.8455,-0.172019 5.77668,0.172827 8.880155,0.345079 3.103474,0.172252 6.379504,0.172252 8.879696,0.949403 2.500191,0.777151 4.224418,2.328955 5.776419,3.449245 1.552001,1.12029 2.931381,1.80998 8.87992,5.431026 5.94854,3.621047 16.466318,10.173109 23.01699,12.413508 6.550675,2.2404 9.137015,0.17133 11.551245,-1.46681 2.41422,-1.638139 4.65571,-2.845096 8.7074,-5.603774 4.05169,-2.758679 9.91405,-7.069241 14.91449,-10.431556 5.00044,-3.362314 9.13858,-5.77623 12.75935,-8.017685 3.62077,-2.241455 6.72437,-4.310529 8.96556,-6.034552 2.24119,-1.724023 3.62057,-3.103403 6.12196,-1.808851 2.50139,1.294551 6.12226,5.260274 8.9674,8.105057 2.84515,2.844783 4.91422,4.569009 7.50014,7.759159 2.58593,3.19015 5.68954,7.845563 7.24032,10.345489 1.55079,2.499925 1.55079,2.844775 1.63739,3.362274 0.0866,0.517498 0.25902,1.207187 1.03612,1.896116 0.7771,0.688929 2.15648,1.378619 2.93159,1.896682 0.77511,0.518062 0.94753,0.862902 3.18879,-0.0011 2.24126,-0.863967 6.55182,-2.933036 11.89669,-6.036587 5.34487,-3.103552 11.72451,-7.241697 17.93141,-12.241759 6.20691,-5.000063 12.2417,-10.862426 17.50094,-15.1732 5.25923,-4.310774 9.74222,-7.0695379 12.06929,-8.7065317 2.32707,-1.6369938 2.4995,-2.1542624 2.84619,-2.3269483 0.3467,-0.1726858 0.86397,-2.618e-4 2.67403,1.8972725 1.81007,1.8975342 4.91367,5.5184056 6.72343,8.1049175 1.80975,2.586512 2.32701,4.138312 3.7934,6.12091 1.46638,1.982598 3.8803,4.396518 8.01837,8.879571 4.13806,4.483054 10.00043,11.035113 13.62139,15.000765 3.62095,3.965651 4.99109,5.335797 6.18299,6.46737 1.1919,1.131573 2.18108,2.001131 2.6765,2.436645 0.49542,0.435514 0.49542,0.435514 0.49542,0.435514 0,0 0,0 0.0109,15.934199 0.0109,15.934198 0.0326,47.862343 0.0543,79.760613 0,0 -300.47200922,-2.61803 -300.47200922,-2.61803 0,0 -0.01551,-99.681312 -0.01551,-99.681312 -0.0490687,-0.678563 -0.0981898,-1.357852 -0.12269789,-1.696771 -0.0245081,-0.338919 -0.0245061,-0.338969 0.0263153,-0.353357 z"
       id="path3910"
       inkscape:original-d="m -0.44115322,43.149888 c 0.101721,-0.0285 0.203241,-0.0576 0.304824,-0.0863 1.33629702,-0.37857 2.66832102,-0.75617 3.99603202,-1.13294 3.782068,-1.71874 7.5892392,-3.44581 11.3798902,-5.17268 1.382026,-1.376732 2.761407,-2.756122 4.138142,-4.138142 4.485629,-1.72158 8.968619,-3.44581 13.448959,-5.17268 0.51991,-0.51462 1.03718,-1.03189 1.55181,-1.5518 2.7614,-0.68705 5.52016,-1.37674 8.27628,-2.06908 2.93383,0.34749 5.86501,0.69234 8.79355,1.03454 3.27868,0.003 6.55471,0.003 9.82809,0 1.72687,1.55445 3.4511,3.10625 5.17268,4.65541 1.38202,0.69234 2.7614,1.38203 4.13814,2.06907 10.52042,6.554712 21.0382,13.106772 31.553326,19.656182 2.58899,-2.06643 5.17533,-4.1355 7.75902,-6.20721 2.24414,-1.20432 4.48563,-2.41127 6.72448,-3.62088 5.86502,-4.30792 11.72738,-8.618482 17.5871,-12.931702 4.14079,-2.41127 8.27894,-4.82518 12.41443,-7.24174 3.10625,-2.06643 6.20986,-4.1355 9.31082,-6.20722 1.38203,-1.37673 2.76141,-2.75611 4.13814,-4.13814 3.62352,3.96837 7.2444,7.93409 10.86262,11.89716 2.07172,1.72687 4.14079,3.4511 6.20722,5.17268 3.10625,4.65805 6.20986,9.313462 9.31082,13.966232 0.003,0.34749 0.003,0.69234 0,1.03453 0.17507,0.69234 0.34749,1.38203 0.51727,2.06908 1.38202,0.69233 2.7614,1.38202 4.13814,2.06907 0.17507,0.34749 0.34749,0.69233 0.51727,1.03453 4.31321,-2.06642 8.62377,-4.13549 12.93169,-6.20721 6.38228,-4.1355 12.76192,-8.273642 19.13891,-12.414432 6.03744,-5.85972 12.07222,-11.72209 18.10437,-17.5871 4.48563,-2.7561198 8.96862,-5.5148798 13.44896,-8.2762898 0.17507,-0.51462 0.34749,-1.03189 0.51727,-1.5518 0.51991,0.17507 1.03718,0.34749 1.5518,0.51727 3.10625,3.62352 6.20986,7.24439 9.31083,10.8626198 0.51991,1.55445 1.03717,3.10625 1.55179,4.65541 2.41657,2.41656 4.83049,4.83048 7.24175,7.24175 5.86502,6.5547 11.72739,13.106762 17.58712,19.656182 1.38202,1.38202 2.75216,2.75217 4.13813,4.13814 0.99782,0.87719 1.98699,1.74675 2.97785,2.61776 2.6e-4,2.6e-4 0,0 0,0 2.6e-4,2.6e-4 2.6e-4,2.6e-4 0,0 0.022,31.868397 0.0652,95.694812 0.0652,95.694812 l -300.47200922,-2.61803 -0.01551,-99.681312 c 0,0 -0.09794,-1.35787 -0.147206,-2.03569 z"
       inkscape:path-effect="#path-effect3912"
       sodipodi:nodetypes="cccccccccccccccccccccccccccccccccccccccccccc" />
  </g>
</svg>
