<?xml version="1.0" encoding="UTF-8" standalone="no"?>
<!-- Created with Inkscape (http://www.inkscape.org/) -->

<svg
   width="210mm"
   height="297mm"
   viewBox="0 0 210 297"
   version="1.1"
   id="svg5"
   inkscape:version="1.1 (c68e22c387, 2021-05-23)"
   sodipodi:docname="Sin.svg"
   inkscape:export-filename="C:\Users\Duck\Javascript-Animation\javascript-animation\src\img\Sin.png"
   inkscape:export-xdpi="96"
   inkscape:export-ydpi="96"
   xmlns:inkscape="http://www.inkscape.org/namespaces/inkscape"
   xmlns:sodipodi="http://sodipodi.sourceforge.net/DTD/sodipodi-0.dtd"
   xmlns="http://www.w3.org/2000/svg"
   xmlns:svg="http://www.w3.org/2000/svg">
  <sodipodi:namedview
     id="namedview7"
     pagecolor="#ffffff"
     bordercolor="#666666"
     borderopacity="1.0"
     inkscape:pageshadow="2"
     inkscape:pageopacity="0.0"
     inkscape:pagecheckerboard="0"
     inkscape:document-units="mm"
     showgrid="false"
     inkscape:zoom="0.67081229"
     inkscape:cx="137.89252"
     inkscape:cy="279.51187"
     inkscape:window-width="1920"
     inkscape:window-height="1001"
     inkscape:window-x="-9"
     inkscape:window-y="-9"
     inkscape:window-maximized="1"
     inkscape:current-layer="layer2" />
  <defs
     id="defs2">
    <rect
       x="13.41657"
       y="34.28679"
       width="767.72595"
       height="138.63789"
       id="rect4809" />
    <inkscape:path-effect
       effect="bspline"
       id="path-effect44"
       is_visible="true"
       lpeversion="1"
       weight="33.333333"
       steps="2"
       helper_size="0"
       apply_no_weight="true"
       apply_with_weight="true"
       only_selected="false" />
  </defs>
  <g
     inkscape:groupmode="layer"
     id="layer2"
     inkscape:label="Layer 2">
    <rect
       style="fill:#ebffa8;fill-opacity:1;stroke:none;stroke-width:7.87605;stroke-opacity:1"
       id="rect9325"
       width="209.05153"
       height="295.43002"
       x="0.19335963"
       y="1.3766265" />
  </g>
  <g
     inkscape:label="Layer 1"
     inkscape:groupmode="layer"
     id="layer1">
    <path
       style="fill:#a8ffe8;stroke:#000000;stroke-width:0.264583px;stroke-linecap:butt;stroke-linejoin:miter;stroke-opacity:1;fill-opacity:1.0"
       d="m 179.85657,183.8008 c -0.67479,1.16031 -1.34733,2.31675 -1.80771,3.43488 -0.46038,1.11813 -0.70689,2.19457 -1.15903,3.58772 -0.45213,1.39315 -1.1095,3.10232 -2.16128,5.33716 -1.05178,2.23485 -2.49799,4.9958 -6.37664,8.47965 -3.87865,3.48386 -10.18922,7.69091 -18.3068,12.06192 -8.11758,4.37101 -18.04386,8.90686 -27.01791,10.55053 -8.97404,1.64366 -16.98833,0.39553 -22.05308,-1.44607 -5.064753,-1.8416 -7.165332,-4.27039 -9.533904,-8.21792 -2.368573,-3.94753 -4.994642,-9.39663 -6.441588,-16.03912 -1.446946,-6.64249 -1.709701,-14.45943 -1.676841,-19.7199 0.03286,-5.26047 0.361319,-7.95384 1.64302,-11.33949 1.2817,-3.38566 3.516762,-7.46136 10.025265,-13.18113 6.508508,-5.71978 17.289378,-13.08233 24.783268,-18.4727 7.49389,-5.39036 11.70106,-8.80869 15.7109,-12.35839 4.00983,-3.5497 7.82258,-7.23097 10.12315,-11.10841 2.30058,-3.87744 3.08942,-7.95313 3.35263,-12.68584 0.26322,-4.732715 2.7e-4,-10.123154 -3.61397,-16.105326 -3.61425,-5.982172 -10.58237,-12.555879 -15.44673,-16.697637 -4.86435,-4.141758 -7.62531,-5.850923 -11.43819,-6.903558 -3.81287,-1.052636 -8.68034,-1.447295 -15.6062,-1.717855 -6.925865,-0.270559 -15.914086,-0.417278 -24.485282,1.353619 -8.571195,1.770898 -16.718364,5.456692 -21.126154,8.054368 -4.40779,2.597676 -5.064993,4.101027 -6.182076,5.378263 -1.117083,1.277236 -2.694772,2.329028 -4.248374,3.545601 -1.553603,1.216573 -3.08149,2.5966 -5.227829,4.605553 -2.146339,2.008952 -4.910738,4.646481 -10.514785,6.363877 -5.604047,1.717397 -14.057753,2.515586 -18.159278,3.018401 -4.1015256,0.502814 -3.8702377,0.712429 -3.6579389,1.551609 0.2122988,0.83918 0.4063319,2.308739 1.1787099,3.00848 0.772379,0.699742 2.121558,0.629577 5.31198,-0.04369 3.190422,-0.673266 8.217818,-1.948753 13.723271,-2.687317 5.505453,-0.738565 11.48823,-0.939888 16.647806,-1.106249 5.159576,-0.166361 9.501129,-0.297923 13.31392,-0.363621 3.81279,-0.0657 7.099642,-0.0657 12.793991,-0.500121 5.69435,-0.434422 13.774964,-1.300708 19.112484,-0.509825 5.337519,0.790883 7.884743,3.237164 9.732825,5.314081 1.84808,2.076917 2.99807,3.782707 4.15521,6.820767 1.15714,3.03807 2.31764,7.4008 -0.58735,11.41176 -2.90498,4.01097 -9.874679,7.66788 -15.098995,11.4019 -5.224315,3.73402 -8.701763,7.54426 -13.061874,12.42375 -4.36011,4.87949 -9.602128,10.82737 -12.766913,16.64676 -3.164784,5.81939 -4.24896,11.5031 -3.73936,20.3628 0.509599,8.85971 2.613187,20.8896 5.308867,30.78339 2.69568,9.89379 5.982532,17.65076 8.152194,22.31802 2.169663,4.66726 3.221456,6.24495 6.37741,8.28203 3.155953,2.03708 8.414919,4.53509 15.57997,5.71758 7.165051,1.18249 16.236761,1.05102 23.007281,0.39342 6.77052,-0.65759 11.24064,-1.84085 14.00183,-2.49813 2.76118,-0.65727 3.81298,-0.78875 5.7843,-1.77488 1.97131,-0.98613 4.86373,-2.82677 7.49349,-4.27304 2.62975,-1.44627 4.99629,-2.49806 7.0338,-3.61551 2.03751,-1.11745 3.74667,-2.30071 7.49349,-5.45597 3.74682,-3.15526 9.53168,-8.28275 13.34408,-13.60659 3.81241,-5.32383 5.65305,-10.84575 6.37656,-15.84093 0.72351,-4.99518 0.32909,-9.4653 -0.0656,-13.93867"
       id="path42"
       inkscape:path-effect="#path-effect44"
       inkscape:original-d="m 179.85657,183.8008 c -0.67447,1.16049 -1.34701,2.31693 -2.02141,3.47584 -0.24637,1.07724 -0.49288,2.15368 -0.73954,3.22933 -0.65473,1.71181 -1.3121,3.42098 -1.97212,5.12749 -1.44356,2.76361 -2.88978,5.52456 -4.33864,8.28287 -6.3114,4.20804 -12.62197,8.41509 -18.93227,12.62152 -9.92491,4.53561 -19.8512,9.07146 -29.77889,13.60757 -8.02057,-1.24888 -16.03486,-2.49701 -24.059757,-3.74702 -2.104556,-2.43343 -4.205135,-4.86222 -6.310757,-7.2968 -2.631431,-5.46051 -5.257501,-10.90961 -7.888445,-16.36854 -0.262804,-7.82601 -0.525558,-15.64295 -0.788845,-23.46812 0.329042,-2.69572 0.657503,-5.38909 0.986056,-8.08566 2.237705,-4.07305 4.472765,-8.14875 6.705179,-12.22709 10.783519,-7.3599 21.564399,-14.72245 32.342629,-22.08765 4.20982,-3.41568 8.41699,-6.83401 12.62151,-10.25498 3.8154,-3.67863 7.62815,-7.3599 11.43825,-11.04382 0.79149,-4.07306 1.58034,-8.14875 2.36653,-12.2271 -0.2603,-5.387788 -0.52325,-10.778226 -0.78884,-16.17131 -6.96548,-6.571059 -13.93361,-13.144764 -20.90438,-19.721115 -2.75831,-1.706518 -5.51927,-3.415681 -8.28287,-5.12749 -4.8619,-0.391777 -9.72919,-0.78861 -14.59363,-1.183267 -8.987269,-0.146443 -17.97549,-0.293162 -26.964661,-0.440157 -8.153072,3.688849 -16.300241,7.374642 -24.458143,11.064908 -0.657503,1.504908 -1.314706,3.008258 -1.972112,4.511205 -1.576875,1.051691 -3.154564,2.103484 -4.733068,3.155378 -1.528654,1.381224 -3.056541,2.761251 -4.585159,4.141434 -2.764053,2.637715 -5.528452,5.275244 -8.293133,7.912524 -8.443644,0.797529 -16.89735,1.595719 -25.3313694,2.391759 0.2309294,0.209315 0.4622172,0.41893 0.6928179,0.627897 0.1942351,1.469349 0.3882682,2.938908 0.5820979,4.408665 1.3507156,-0.06997 2.6998946,-0.140132 4.0500666,-0.210627 5.030737,-1.276003 10.058133,-2.551491 15.086785,-3.827628 5.982184,-0.20103 11.964961,-0.402353 17.945803,-0.603884 4.338309,-0.131191 8.679937,-0.260302 13.015936,-0.394422 3.289499,0.0026 6.576351,0.0026 9.860558,0 8.104523,-0.868556 16.185137,-1.734842 24.306523,-2.605791 2.553617,2.452431 5.100841,4.898712 7.641688,7.338859 1.15538,1.713642 2.30537,3.419432 3.4582,5.129542 1.16157,4.36601 2.32207,8.72874 3.48283,13.09317 -6.97075,3.65786 -13.940444,7.31477 -20.911595,10.97204 -3.477368,3.81071 -6.954816,7.62095 -10.43237,11.43075 -5.242664,5.94918 -10.484683,11.89706 -15.729539,17.8476 -1.084689,5.68805 -2.168863,11.37176 -3.253984,17.05877 2.104228,12.0323 4.207814,24.06219 6.310757,36.08964 3.289498,7.75962 6.576351,15.51659 9.860558,23.27092 1.054438,1.58033 2.106231,3.15802 3.155378,4.73307 5.26161,2.50065 10.520574,4.99866 15.776893,7.49402 9.074362,-0.12883 18.146072,-0.2603 27.215142,-0.39442 4.47276,-1.18062 8.94288,-2.36389 13.41036,-3.5498 1.05443,-0.12883 2.10623,-0.26031 3.15537,-0.39443 2.89508,-1.83799 5.78751,-3.67862 8.67729,-5.52191 2.36918,-1.04915 4.73572,-2.10094 7.09961,-3.15538 1.71181,-1.18062 3.42097,-2.36388 5.12749,-3.5498 5.7875,-5.12484 11.57236,-10.25233 17.35458,-15.38247 1.84328,-5.51926 3.68392,-11.04118 5.52191,-16.56573 -0.3939,-4.46689 -0.78832,-8.93701 -1.18327,-13.41036"
       sodipodi:nodetypes="cccccccccccccccccccccccccccccccccccccccccccccccccccccccc" />
    <circle
       style="fill:#ffffff;stroke:#000000;stroke-width:7.39;stroke-opacity:1"
       id="path2466"
       cx="63.107571"
       cy="75.926292"
       r="2.7609563" />
    <text
       xml:space="preserve"
       transform="matrix(0.26458333,0,0,0.26458333,63.896414,24.454183)"
       id="text4807"
       style="font-style:normal;font-weight:normal;font-size:40px;line-height:1.25;font-family:sans-serif;white-space:pre;shape-inside:url(#rect4809);fill:#000000;fill-opacity:1;stroke:none"><tspan
         x="13.416016"
         y="70.780322"
         id="tspan9455">What Sin</tspan></text>
  </g>
</svg>
